<?xml version="1.0" encoding="utf-8"?>
<svg id="Layer_1" data-name="Layer 1" class="color" xmlns="http://www.w3.org/2000/svg" viewBox="24.169 2.407 92.824 22.848">
  <defs>
    <style>
      .cls-1 {
        opacity: .5;
      }
    </style>
  </defs>
  <g>
  <path d="M 54.741 9.725 C 54.768 9.616 51.039 9.908 50.999 13.056 C 50.97 15.351 52.814 16.287 54.774 16.117 C 54.854 16.087 54.741 9.725 54.741 9.725 Z"/>
  <path d="M 89.124 10.568 C 89.874 10.605 89.72 15.373 88.973 15.336 L 55.142 16.147 C 55.142 16.147 55.106 11.623 55.089 9.75 L 89.124 10.568 Z"/>
  <path d="M 55.114 9.354 L 55.08 8.758 L 58.452 8.132 L 59.217 8.707 L 72.41 8.225 L 72.88 8.817 L 81.33 8.936 L 81.638 8.331 L 86.206 8.219 L 86.302 6.452 L 85.969 6.42 L 85.963 5.169 L 86.392 5.179 L 86.532 3.469 L 87.682 3.529 L 87.151 9.968 L 55.114 9.354 Z"/>
  <path d="M 54.381 16.623 L 53.584 20.675 L 60.246 19.862 L 60.282 16.564 L 54.381 16.623 Z"/>
  <path d="M 46.727 11.822 C 46.727 11.822 46.482 10.963 46.77 10.752 C 47.028 10.563 47.697 11.003 47.697 11.003 L 51.812 9.715 L 51.908 10.166 L 46.727 11.822 Z"/>
  <path class="cls-1" d="M 115.922 16.457 L 110.712 12.187 L 116.572 2.517 L 105.972 8.877 C 105.432 7.377 104.752 6.687 103.702 6.347 C 102.322 5.887 101.222 6.457 101.222 6.457 C 101.222 6.457 99.882 4.067 97.482 4.267 C 94.632 4.507 94.382 7.767 94.382 7.767 C 94.382 7.767 96.062 6.197 98.062 7.017 C 99.282 7.517 99.532 9.297 99.532 9.297 C 99.532 9.297 100.862 8.657 102.232 9.387 C 103.502 10.067 103.662 12.037 103.662 12.037 L 107.452 10.897 L 105.442 13.767 L 109.722 15.737 L 104.972 16.187 L 106.552 19.497 L 103.082 18.897 L 106.552 24.887 L 106.902 21.347 L 114.182 22.947 L 110.972 17.767 L 115.912 16.497 C 115.912 16.497 115.912 16.467 115.912 16.467 L 115.922 16.457 Z"/>
  </g>
  <g transform="matrix(1, 0, 0, 1, 1.4517, 3.116995)">
    <path d="M 32.292 18.391 L 31.807 10.198 L 24.82 10.135 L 26.062 19.78 L 32.292 18.391 Z"/>
    <path d="M 25.754 19.817 L 24.431 10.125 C 23.316 10.402 22.742 11.001 23.112 11.921 L 24.26 19.068 C 24.26 19.068 24.734 20.317 25.754 19.817 Z"/>
    <path d="M 48.179 12.977 C 47.62 12.997 48.051 12.994 47.454 13.017 C 47.359 14.473 48.06 14.813 48.06 14.813 C 47.767 15.087 46.566 13.944 46.677 13.27 C 46.677 13.27 46.32 13.29 46.21 13.54 C 45.69 14.75 46.559 15.197 47.237 15.378 C 47.729 15.509 47.98 15.32 48.547 14.591 L 48.472 8.031 L 50.625 7.247 C 50.631 7.257 50.175 7.522 49.796 8.002 C 49.417 8.482 49.122 9.221 49.19 9.989 C 49.331 11.584 49.987 12.543 50.902 12.974 C 51.817 13.405 52.541 13.465 52.541 13.465 L 51.573 17.98 C 51.573 17.98 51.924 19.167 51.713 19.704 C 51.506 20.231 51.05 20.709 50.423 20.741 C 49.746 20.775 49.031 20.25 48.849 19.623 C 48.722 19.183 48.66 18.435 48.629 17.675 C 48.578 16.431 48.607 15.155 48.557 15.155 C 48.076 15.598 47.904 15.867 47.475 15.853 C 46.959 15.836 46.158 15.388 45.689 14.904 C 45.418 14.624 45.174 13.854 45.174 13.854 C 45.174 13.854 44.758 13.499 44.74 13.43 C 44.749 13.416 42.032 13.997 40.888 14.722 C 39.745 15.446 39.357 16.813 38.079 17.652 C 37.576 17.982 36.23 17.53 35.305 17.647 C 34.401 17.761 32.671 18.244 32.671 18.244 L 32.227 10.228 C 32.227 10.228 36.527 10.248 36.994 10.652 C 37.424 11.024 38.111 11.937 38.111 11.937 C 38.111 11.937 40.799 10.594 42.393 9.976 C 44.178 9.284 48.236 8.071 48.173 8.134 L 48.179 12.977 Z M 50.259 18.373 C 50.052 18.373 49.852 18.455 49.706 18.602 C 49.559 18.749 49.476 18.948 49.476 19.156 C 49.476 19.364 49.559 19.563 49.706 19.71 C 49.852 19.856 50.052 19.939 50.259 19.939 C 50.692 19.939 51.042 19.588 51.042 19.156 C 51.042 18.723 50.692 18.373 50.259 18.373 Z"/>
  </g>
  <g transform="matrix(0.998056, 0, 0, 0.894761, 0.170221, 1.743487)">
    <path d="M 86.129 19.113 L 60.552 20.924 L 60.568 16.529 L 87.488 15.731 C 87.658 15.731 86.819 18.843 86.819 18.843 C 86.679 19.003 86.419 19.093 86.139 19.103 L 86.129 19.113 Z M 85.516 16.705 C 85.085 16.705 84.736 17.089 84.736 17.563 C 84.736 18.037 85.085 18.421 85.516 18.421 C 85.946 18.421 86.295 18.037 86.295 17.563 C 86.295 17.089 85.946 16.705 85.516 16.705 Z M 62.193 17.973 C 61.762 17.973 61.413 18.358 61.413 18.832 C 61.413 19.306 61.762 19.69 62.193 19.69 C 62.623 19.69 62.972 19.306 62.972 18.832 C 62.972 18.358 62.623 17.973 62.193 17.973 Z"/>
  </g>
  <g transform="matrix(0.982815, 0.184594, -0.184594, 0.982815, 4.940327, 0.159034)">
    <path d="M 96.31 -1.825 C 96.66 -3.105 96.24 -4.515 95.14 -5.345 C 94.04 -6.175 92.57 -6.205 91.43 -5.525 L 96.31 -1.825 Z"/>
    <path d="M 89.86 -3.455 C 89.51 -2.175 89.93 -0.775 91.03 0.065 C 92.13 0.905 93.6 0.925 94.74 0.245 L 89.86 -3.455 Z"/>
    <path d="M 95.203 0.082 C 95.603 0.232 95.99 0.195 96.3 -0.215 C 96.61 -0.625 96.48 -1.058 96.23 -1.398 L 91 -5.368 C 91 -5.368 90.21 -5.495 89.9 -5.075 C 89.59 -4.655 89.655 -4.226 89.905 -3.876 L 95.203 0.082 Z"/>
  </g>
</svg>