<?xml version="1.0" encoding="utf-8"?>
<svg id="Layer_1" data-name="Layer 1" class="color" xmlns="http://www.w3.org/2000/svg" viewBox="48.142 21.807 318.555 75.639">
  <defs>
    <style>
      .cls-1
      {
         opacity: 0.5;
      }
    </style>
  </defs>
  <g>
    <path class="cls-1" d="M 355.042 23.343 C 355.042 23.343 345.288 35.318 345.288 36.077 C 345.302 36.079 345.316 36.085 345.329 36.088 C 352.255 37.857 366.296 40.596 366.296 40.596 L 344.485 47.499 C 344.485 47.499 355.721 57.843 355.684 57.839 C 354.51 57.681 315.755 45.919 315.755 45.919 L 315.892 35.073 L 355.042 23.343 Z"/>
    <path d="M 49.57 41.772 L 53.612 41.898 L 55.729 92.319 L 52.57 92.772 L 49.57 41.772 Z"/>
    <path d="M 147.452 35.933 C 147.452 35.933 147.452 31.056 147.452 29.055 C 149.118 29.013 159.042 29.603 159.042 29.603 L 162.452 34.952 L 178.532 33.748 L 178.532 46.189 L 136.386 46.189 L 136.411 38.284 L 147.452 35.933 Z"/>
    <path d="M 179.65 44.875 L 197.556 44.875 L 197.537 54.989 L 183.498 61.04 C 183.498 61.04 166.838 59.163 155.766 58.957 C 155.795 59.235 155.81 59.517 155.81 59.802 C 155.81 65.06 150.75 69.323 144.509 69.323 C 140.095 69.323 136.272 67.191 134.412 64.083 C 124.716 69.51 118.602 77.284 118.602 77.284 C 118.602 77.284 111.354 77.283 107.687 76.963 C 103.41 76.617 84.316 83.6 67.719 88.896 L 67.719 96.401 L 65.979 96.401 L 65.979 89.54 C 64.448 90.003 57.859 91.937 57.446 92.018 L 55.343 41.95 C 65.402 42.248 84.202 39.78 98.179 42.71 C 105.097 44.16 106.429 47.502 117.747 50.88 C 117.747 50.22 136.5 47.117 136.5 47.117 L 179.65 47.117 L 179.65 44.875 Z M 153.404 58.94 C 151.696 58.95 146.131 59.255 144.916 59.882 C 143.771 60.473 146.609 65.847 146.832 65.679 C 146.67 66.572 141.537 62.278 141.81 60.776 C 141.81 60.776 138.184 62.146 136.505 62.978 C 136.942 63.752 137.548 64.464 138.305 65.077 C 139.974 66.429 142.238 67.188 144.598 67.188 C 146.958 67.188 149.222 66.429 150.891 65.077 C 152.559 63.725 153.497 61.892 153.497 59.98 C 153.497 59.63 153.466 59.282 153.404 58.94 Z"/>
    <path d="M 193.57 33.464 L 193.559 43.416 L 179.612 43.416 L 179.612 33.535 C 185.145 33.256 193.57 33.464 193.57 33.464 Z"/>
    <path d="M 295.48 31.636 L 300.234 31.636 L 300.234 37.237 L 311.774 37.261 L 311.774 43.601 L 300.234 43.577 L 300.234 46.35 L 303.374 46.356 L 303.374 52.681 L 300.234 52.681 L 300.234 54.573 L 295.48 54.573 L 295.48 52.681 L 283.307 52.681 L 283.307 59.308 L 281.774 59.269 L 281.77 46.317 L 295.48 46.342 L 295.48 43.567 L 281.792 43.539 L 281.792 37.199 L 295.48 37.227 Z"/>
    <path d="M 194.947 33.392 C 191.775 32.691 277.124 33.246 280.776 34.053 L 280.776 43.545 L 194.947 43.545 L 194.947 33.392 Z"/>
    <path d="M 198.518 52.681 L 198.518 46.356 L 212.734 46.356 L 212.734 52.681 L 198.518 52.681 Z"/>
    <path d="M 213.72 44.835 L 280.779 44.812 L 280.76 55.077 C 280.76 55.077 229.435 64.257 218.967 60.551 C 217.506 60.034 213.741 54.801 213.741 54.801 L 213.72 44.835 Z"/>
  </g>
</svg>