<?xml version="1.0" encoding="utf-8"?>
<svg id="Layer_1" class="color" xmlns="http://www.w3.org/2000/svg" viewBox="0.993 4.47 551.846 126.537">
  <defs>
    <style>
     .st5 { opacity: 0.5; }
    </style>
  </defs>
  <g>
  <polygon class="st5" points="505.1 47.52 517.35 63.64 477.98 47.71 484.09 42.97 480.96 36.13 487.95 31.59 478.44 27.09 512.45 5.61 502.42 27.76 551.45 37.28 505.1 47.52"/>
  <path d="M 159.063 33.515 C 159.063 33.515 148.853 38.975 141.743 44.475 C 136.013 48.905 130.073 53.135 127.443 56.675 C 127.353 56.735 125.896 57.627 124.603 56.385 L 116.163 45.705 C 115.803 45.255 115.163 44.995 114.483 45.025 L 8.023 49.935 C 2.653 50.475 2.433 125.985 12.913 128.535 L 14.033 128.655 C 22.603 129.655 91.863 93.415 103.323 87.495 C 104.193 87.045 105.353 87.235 105.903 87.925 C 111.783 95.215 121.078 101.543 121.078 101.543 C 121.078 101.543 132.955 87.335 139.812 81.196 C 146.663 75.063 158.474 69.803 158.474 69.803 L 159.063 33.515 Z"/>
  <path d="M 467.913 32.418 L 461.46 32.51 L 461.506 44.593 C 461.506 44.593 460.679 44.618 459.215 44.653 L 459.215 21.964 L 461.359 21.92 L 461.381 24.933 L 467.953 24.91 L 467.913 32.418 Z M 441.383 44.856 C 441.327 44.856 435.844 44.835 428.68 44.807 L 430.086 35.936 L 287.664 44.094 L 287.664 18.185 L 407.324 19.04 C 408.114 19.05 409.404 21.92 410.194 21.92 L 441.383 21.92 L 441.383 44.856 Z M 441.383 47.424 L 441.383 64.03 L 425.633 64.03 L 428.264 47.431 L 441.383 47.424 Z M 241.235 64.03 L 225.644 67.46 L 188.724 67.46 C 187.924 67.46 187.284 68.11 187.284 68.9 L 187.284 74.89 C 187.284 75.69 186.634 76.33 185.844 76.33 L 183.564 76.33 C 182.874 76.33 182.274 76.82 182.154 77.49 C 181.594 80.5 180.743 83.028 178.524 84.37 C 175.372 86.276 170.48 86.528 167.474 84.4 C 164.89 82.571 164.916 77.169 164.341 75.433 C 163.293 72.266 159.842 70.623 159.842 70.623 L 160.584 31.81 C 160.584 31.81 168.301 25.714 172.924 25.41 C 188.295 24.4 218.724 23.65 218.854 23.61 L 234.404 19.04 L 234.404 17.16 C 234.404 17.16 240.774 15.9 242.144 15.82 L 242.144 17.86 L 271.844 18.072 L 271.844 31.09 C 271.844 28.555 269.789 26.5 267.254 26.5 L 226.934 26.5 C 224.399 26.5 222.344 28.555 222.344 31.09 L 222.344 33.31 C 222.344 35.845 224.399 37.9 226.934 37.9 L 267.254 37.9 C 269.789 37.9 271.844 35.845 271.844 33.31 L 271.967 45.026 L 266.325 45.454 L 268.833 63.882 L 241.235 64.03 Z M 462.104 47.34 L 462.104 64.03 L 459.215 64.03 L 459.215 47.352 L 462.104 47.34 Z M 456.735 11.481 L 456.82 16.734 L 453.836 16.734 L 456.735 11.481 Z M 181.234 70.15 C 181.224 69.36 180.584 68.73 179.794 68.73 L 174.514 68.73 C 174.014 68.73 173.554 69 173.284 69.41 C 170.424 73.72 173.939 80.895 173.939 80.895 C 170.539 80.025 169.214 68.74 169.214 68.74 L 160.994 69.85 C 161.284 70.77 163.133 70.982 163.854 71.91 C 166.072 74.764 167.554 81.91 167.824 82 C 167.824 82 175.37 84.121 178.084 82.04 C 181.338 79.546 181.254 73.85 181.234 70.15 Z"/>
  <path d="M 166.205 91.324 C 162.227 105.669 145.879 123.085 129.492 124.187 C 126.908 124.361 124.33 122.085 123.062 119.827 C 120.37 115.035 119.584 110.311 121.735 105.253 C 125.595 96.175 133.385 88.271 141.137 81.711 C 146.869 76.861 152.429 73.373 159.864 70.649 C 166.235 68.315 168.057 84.645 166.205 91.324 Z M 160.095 71.99 C 146.754 77.747 147.655 78.312 142.406 82.691 C 134.995 88.873 127.255 96.335 123.43 104.559 C 121.119 109.528 121.921 114.146 124.36 118.524 C 125.498 120.568 127.81 122.657 130.144 122.499 C 145.657 121.447 161.09 104.214 164.668 91.133 C 166.335 85.043 165.773 69.54 160.095 71.99 Z"/>
  <path d="M110.59,17.37"/>
  <rect x="443.475" y="18.738" width="13.952" height="48.616"/>
  <path d="M 273.46 14.852 L 286.164 14.852 L 286.164 44.631 L 273.545 45.332 L 273.46 14.852 Z"/>
  <rect x="224.205" y="27.907" width="46.174" height="8.548" rx="4.59" ry="4.59"/>
  <path d="M 274.855 89.6 L 268.629 46.917 L 428.244 37.657 L 426.48 48.784 L 298.551 58.899 C 294.961 59.179 292.241 63.039 292.471 67.519 C 292.701 71.999 295.791 75.389 299.381 75.109 L 423.848 65.329 L 421.885 77.768 L 274.855 89.6 Z"/>
  <path d="M 424.055 64.024 C 424.055 64.024 425.624 54.957 426.093 50.238 L 298.821 60.104 C 295.582 60.357 293.511 63.368 293.719 67.41 C 293.926 71.452 296.509 74.112 299.749 73.859 L 424.055 64.024 Z"/>
  </g>
</svg>