<?xml version="1.0" encoding="utf-8"?>
<svg id="Layer_1" data-name="Layer 1" class="color" xmlns="http://www.w3.org/2000/svg" viewBox="0 0 78 16">
  <defs>
    <style>
      .cls1 {
        opacity: .5;
      }
    </style>
    <view id="view-1" viewBox="-2.52 22.934 56.106 4.969">
      <title>View 1</title>
    </view>
  </defs>
  <rect x="41.314" y="3.841" width="24.51" height="1.21" rx="0.26" ry="0.26"/>
  <rect x="41.314" y="6.061" width="24.51" height="1.21" rx="0.23" ry="0.23"/>
  <rect x="41.314" y="8.281" width="24.51" height="1.21" rx="0.24" ry="0.24"/>
  <g class="cls1" transform="matrix(1, 0, 0, 1, 0.584081, -6.088554)">
    <path d="M67.16,10.9c.24-.15,4.32-1.47,4.32-1.47l-.45,1.16,5.77,1.11-6.18,1.98,1.2.69-2.16.71-2.98-1.28,1.5-.95-.89-.45,1.43-.54-1.56-.95h0Z"/>
    <polygon points="67.16 14.39 70.03 15.89 67.98 16.5 67.16 14.39"/>
    <polygon points="67.02 10.5 69.34 7.44 69.17 9.7 67.02 10.5"/>
  </g>
  <rect x="66.044" y="3.841" width="0.99" height="5.64" rx="0.27" ry="0.27"/>
  <rect x="38.944" y="3.841" width="2.23" height="5.64" rx="0.24" ry="0.24"/>
  <rect x="37.994" y="4.651" width="0.81" height="4.03" rx="0.25" ry="0.25"/>
  <rect x="36.564" y="4.651" width="1.3" height="4.03" rx="0.23" ry="0.23"/>
  <path d="M 35.954 4.181 L 17.094 4.181 C 16.874 4.181 16.694 4.361 16.694 4.581 L 16.694 8.171 L 17.324 8.221 L 18.954 8.321 C 19.004 8.351 19.064 8.361 19.124 8.361 L 30.434 8.361 L 30.434 9.481 L 35.964 9.481 C 36.184 9.481 36.364 9.301 36.364 9.081 L 36.364 4.581 C 36.364 4.361 36.184 4.181 35.964 4.181 L 35.954 4.181 Z M 30.354 6.251 L 25.724 6.251 L 25.724 4.971 L 30.354 4.971 L 30.354 6.251 Z"/>
  <polygon points="18.244 13.821 15.614 13.671 18.224 6.551 20.564 7.481 18.244 13.821"/>
  <rect x="17.954" y="3.601" width="2.89" height="0.47"/>
  <path d="M 23.244 8.061 C 23.874 8.961 22.484 9.841 20.024 9.671 C 18.464 9.561 17.944 9.151 17.944 8.371 C 17.944 7.591 18.454 6.831 20.024 6.831 C 21.594 6.831 22.794 7.421 23.244 8.061 Z"/>
  <path d="M 16.554 7.221 L 2.054 9.241 C 1.474 9.321 0.974 8.691 0.974 7.891 L 0.974 4.861 C 0.974 4.061 1.474 3.431 2.044 3.511 C 10.284 4.531 13.424 5.031 14.094 5.271 C 14.134 5.291 14.184 5.301 14.184 5.301 C 14.684 5.471 15.024 5.601 15.084 5.621 C 15.324 5.701 15.744 5.741 16.544 5.511 L 16.544 7.231 L 16.554 7.221 Z"/>
  <path d="M15.17,10.43"/>
  <path d="M 21.464 9.331 C 21.214 9.351 20.974 9.371 20.724 9.381 C 20.594 8.821 20.454 8.251 20.324 7.691 C 20.544 7.741 20.764 7.791 20.984 7.841 C 20.954 7.971 20.914 8.201 20.964 8.461 C 21.054 8.951 21.364 9.241 21.464 9.331 Z"/>
</svg>