<?xml version="1.0" encoding="utf-8"?>
<svg id="Layer_1" class="color" xmlns="http://www.w3.org/2000/svg" viewBox="0 8.402 45.847 18.497">
  <defs>
    <style>
      .cls-1 {
        opacity: .5;
      }
    </style>
  </defs>
  <path class="cls-1" d="M 38.939 13.483 L 40.042 13.593 L 39.846 12.282 L 40.436 11.118 C 40.436 11.118 38.933 10.965 38.964 10.922 L 42.045 8.729 L 41.665 10.744 L 45.543 12.515 L 40.587 13.991 L 41.126 15.431 L 38.945 14.01 L 38.945 13.489 L 38.933 13.489 L 38.939 13.489 L 38.939 13.483 Z" style=""/>
  <path d="M 15.98 14.74 C 15.98 15.26 15.98 15.77 15.99 16.29 L 17.53 16.29 C 17.53 16.29 17.53 16.03 17.55 15.93 C 17.57 15.8 17.72 15.47 18 15.07 L 18 14.73 C 17.33 14.73 16.65 14.74 15.98 14.75 L 15.98 14.74 Z"/>
  <path class="st1" d="M 10.837 10.714 C 9.814 10.654 8.94 12.043 8.94 13.492 C 8.94 14.941 9.839 16.101 10.824 16.29 L 10.824 10.714 L 10.837 10.714 Z"/>
  <circle cx="4.41" cy="21.81" r=".75"/>
  <path d="M6.82,11.39c.64.2.63.92,1.24,1.28.26.16.5.23.7.3.03-.27.08-.52.16-.75-.17.05-.38.04-.63-.07-.45-.2-.71-.96-1.4-1.04-.27-.03-.32.2-.08.28Z"/>
  <path d="M 36.983 13.118 L 18.488 13.144 L 18.488 11.341 L 33.133 11.273 L 33.133 10.383 L 35.673 10.663 L 35.673 11.339 L 37.001 11.355 L 36.983 13.118 Z"/>
  <path d="M 15.659 12.53 L 15.679 15.07 L 11.838 15.07 L 11.838 15.64 L 15.69 15.64 L 15.69 16.26 L 11.095 16.256 L 11.095 11.43 L 15.659 11.4 L 15.659 11.96 L 11.838 11.96 L 11.838 12.53 L 15.659 12.53 Z"/>
  <path d="M 17.005 10.702 L 18.01 11.346 L 18.01 14.49 C 17.331 14.499 16.007 14.486 16.007 14.486 C 16.007 14.486 16.011 11.88 16.011 11.2 L 11.106 11.219 C 11.106 11.068 11.105 10.734 11.103 10.713 C 12.82 10.69 17.005 10.702 17.005 10.702 Z"/>
  <path d="M 17.53 16.49 C 16.439 16.495 14.554 16.485 12.974 16.473 C 11.468 16.462 10.4 16.494 10.4 16.494 C 9.712 16.38 9.319 15.264 8.807 15.273 C 7.336 15.298 5.74 16.2 4.99 16.65 C 4.18 17.15 3.631 17.86 3.14 18.56 C 2.719 19.16 -0.032 26.12 0.01 26.17 C 0.165 26.353 0.21 26.6 0.45 26.59 L 7.13 26.41 C 7.36 26.36 7.51 26.13 7.46 25.9 C 7.19 24.58 7.08 23.41 7.13 22.46 C 7.17 21.71 7.32 21.11 7.58 20.67 C 7.82 20.28 8.16 20.02 8.61 19.93 C 8.74 19.9 8.89 19.89 9.04 19.89 C 9.18 19.96 9.35 20.08 9.41 20.21 C 10.16 21.64 10.59 22.04 12.95 21.71 C 13.59 21.62 14.44 21.34 15.03 20.9 C 15.41 20.61 15.77 20.21 15.94 19.63 C 16.19 18.77 15.72 17.65 17.12 17.65 C 17.43 17.65 17.54 17.45 17.53 17.1 L 17.53 16.49 Z M 4.41 22.81 C 3.12 22.81 3.12 20.81 4.41 20.81 C 5.7 20.81 5.7 22.81 4.41 22.81 Z M 11.79 18.29 C 11.7 19.7 12.17 20.61 13.26 21.02 C 13.46 21.1 13.59 20.84 13.35 20.7 C 12.59 20.25 12.36 19.4 12.65 18.15 C 13.33 18.05 13.98 17.97 14.3 17.92 C 14.98 17.83 15.35 18.19 15.57 18.72 C 15.73 19.1 15.73 19.44 15.63 19.73 C 15.4 20.38 14.67 20.86 13.89 21.14 C 12.72 21.57 10.69 22 10.08 20.63 C 9.76 19.9 9.8 19.14 10.41 18.68 C 10.59 18.54 11.15 18.41 11.79 18.29 Z"/>
  <rect x="18.519" y="13.602" width="13.76" height="0.829"/>
</svg>