<?xml version="1.0" encoding="utf-8"?>
<svg id="Layer_1" class="color" xmlns="http://www.w3.org/2000/svg" viewBox="2.493 1.375 101.904 29.48">
  <defs>
    <style>
      .cls-1 { fill: rgb(225, 120, 0); }
    </style>
  </defs>
  <path d="M 75.718 14.152 C 75.718 14.152 75.17 15.79 75.03 17.29 C 74.97 17.85 74.62 18.29 74.2 18.29 L 72.232 18.318 L 72.206 12.248 L 75.718 14.152 Z"/>
  <path d="M 6.083 22.434 C 6.193 22.514 10.231 24.883 10.971 25.203 C 11.151 24.933 11.593 24.334 11.593 24.334 L 7.823 19.924 C 7.823 19.924 6.663 21.534 6.083 22.434 Z"/>
  <path d="M 8.208 19.448 C 9.308 20.668 11.803 23.554 12.013 23.754 C 12.493 23.124 13.063 22.464 13.693 21.804 C 12.763 21.164 8.558 18.966 8.558 18.966 C 8.558 18.966 8.278 19.348 8.208 19.448 Z"/>
  <path d="M 14.163 21.294 L 15.323 20.204 L 12.003 15.104 L 8.933 18.484 L 14.163 21.294 Z"/>
  <path d="M 17.643 18.374 L 13.343 13.884 L 12.513 14.624 L 15.863 19.754 L 17.643 18.374 Z"/>
  <path d="M 13.873 13.434 L 18.109 17.96 L 18.543 17.724 L 16.693 11.404 C 16.693 11.404 14.933 12.554 13.863 13.434 L 13.873 13.434 Z"/>
  <path d="M 10.653 25.734 C 10.623 25.724 6.463 23.554 5.723 22.994 C 5.503 23.344 5.283 23.694 5.063 24.054 C 4.673 24.714 2.353 25.434 2.933 25.844 L 9.053 30.134 C 9.563 30.494 9.783 27.334 10.103 26.714 C 10.263 26.404 10.443 26.084 10.653 25.734 Z"/>
  <path d="M 82.329 9.929 C 83.313 9.89 82.811 12.791 82.33 12.402 C 80.412 10.848 79.305 11.721 78.01 10.977 C 77.528 10.7 76.925 9.711 76.925 9.711 C 76.928 9.711 77.605 10.114 82.329 9.929 Z"/>
  <path d="M 39.937 18.01 L 39.887 7.862 L 45.858 12.215 L 48.537 12.256 L 48.599 18.07 L 39.937 18.01 Z"/>
  <path d="M 49.007 12.197 L 53.618 12.19 L 53.618 16.878 C 53.618 17.197 53.719 17.502 53.899 17.727 C 54.079 17.952 54.323 18.078 54.578 18.078 L 54.878 18.078 C 55.133 18.078 55.377 17.952 55.557 17.727 C 55.737 17.502 55.838 17.197 55.838 16.878 L 55.838 12.187 L 57.89 12.184 L 57.89 16.883 C 57.89 17.202 57.991 17.507 58.171 17.732 C 58.351 17.957 58.595 18.083 58.85 18.083 L 59.15 18.083 C 59.405 18.083 59.649 17.957 59.829 17.732 C 60.009 17.507 60.11 17.202 60.11 16.883 L 60.11 12.18 L 62.17 12.177 L 62.17 16.846 C 62.17 17.164 62.271 17.469 62.451 17.694 C 62.631 17.919 62.875 18.046 63.13 18.046 L 63.43 18.046 C 63.96 18.046 64.39 17.508 64.39 16.846 L 64.39 12.174 L 66.541 12.171 L 66.541 16.804 C 66.541 17.123 66.642 17.428 66.822 17.653 C 67.002 17.878 67.246 18.004 67.501 18.004 L 67.801 18.004 C 68.056 18.004 68.3 17.878 68.48 17.653 C 68.66 17.428 68.761 17.123 68.761 16.804 L 68.761 12.168 L 71.815 12.163 L 71.84 18.5 C 71.84 18.5 70.638 20.585 69.398 20.705 C 69.398 20.705 52.546 22.039 52.116 21.449 C 52.116 21.449 51.874 19.907 51.384 19.353 C 50.803 18.696 49.024 18.327 49.024 18.187 Z"/>
  <path d="M 39.519 7.653 C 39.519 7.653 26.959 7.521 23.667 8.194 C 20.88 8.764 17.363 11.099 17.363 11.099 L 19.855 20.025 C 19.855 20.025 21.035 24.923 28.022 23.746 C 28.022 23.746 27.653 21.05 28.062 19.8 C 28.284 19.121 28.65 18.008 29.31 18.058 L 39.543 18.038 L 39.519 7.653 Z M 23.098 22.367 C 22.416 21.9 21.609 21.266 21.19 20.49 C 20.773 19.719 20.581 18.622 20.653 17.852 L 22.112 17.938 C 21.951 19.822 24.1 21.988 24.196 21.589 C 24.196 21.589 22.902 19.497 23.141 18 L 27.167 18.038 C 27.167 18.038 26.874 19.251 26.828 19.871 C 26.755 20.862 26.935 22.85 26.935 22.85 C 26.935 22.85 24.162 23.095 23.098 22.367 Z"/>
  <path class="cls-1" d="M 103.098 9.485 C 104.195 7.217 103.343 1.893 103.29 1.93 C 103 2.15 101.241 4.806 99.887 5.906 C 98.412 7.105 94.88 8.97 94.89 8.65 C 94.96 7.79 94.75 6.94 94.31 6.24 C 94.31 6.24 93.17 4.74 93.09 4.82 C 92.99 4.92 92.91 6.48 92.82 6.83 C 92.54 7.95 91.125 9.495 90.07 10.66 C 89.796 10.963 89.35 10.75 89.15 11.47 C 88.81 12.68 88.81 13.4 89.17 14.69 C 89.73 16.73 90.4 16.81 90.62 16.9 C 91.58 17.31 94.15 15.328 93.73 15.208 C 93.73 15.208 92.221 14.661 91.749 14.299 C 91.323 13.972 90.67 13.1 90.67 13.1 C 90.48 12.68 90.73 12.76 90.78 12.78 C 90.93 12.83 91.94 13.22 92.08 13.27 C 93.89 13.97 95.6 14.38 97.61 14.06 C 99.84 13.71 102.061 11.629 103.098 9.485 Z"/>
  <path d="M 69.275 11.836 L 45.89 11.79 L 39.837 7.298 L 35.838 7.265 L 35.779 5.298 L 69.322 5.279 L 69.275 11.836 Z M 52.34 6.57 C 51.799 6.57 51.36 7.018 51.36 7.57 C 51.36 8.122 51.799 8.57 52.34 8.57 C 52.881 8.57 53.32 8.122 53.32 7.57 C 53.32 7.018 52.881 6.57 52.34 6.57 Z M 56.47 6.57 C 55.929 6.57 55.49 7.018 55.49 7.57 C 55.49 8.122 55.929 8.57 56.47 8.57 C 57.011 8.57 57.45 8.122 57.45 7.57 C 57.45 7.018 57.011 6.57 56.47 6.57 Z M 60.66 6.57 C 60.119 6.57 59.68 7.018 59.68 7.57 C 59.68 8.122 60.119 8.57 60.66 8.57 C 61.201 8.57 61.64 8.122 61.64 7.57 C 61.64 7.018 61.201 6.57 60.66 6.57 Z M 64.85 6.57 C 64.309 6.57 63.87 7.018 63.87 7.57 C 63.87 8.122 64.309 8.57 64.85 8.57 C 65.391 8.57 65.83 8.122 65.83 7.57 C 65.83 7.018 65.391 6.57 64.85 6.57 Z"/>
  <path d="M 87.717 14.422 C 87.654 14.694 86.75 16.6 86.75 16.6 C 86.399 17.244 85.433 17.365 84.7 17.4 C 83.229 17.47 81.2 16.58 80.45 16.19 C 79.64 15.78 72.206 11.804 72.206 11.804 L 72.156 5.191 C 72.946 4.98 79.068 3.596 80.09 3.62 C 82.303 3.672 84.386 5.15 86.592 4.967 C 87.024 4.931 87.17 4.45 87.806 4.497 C 88.503 4.549 89.343 4.719 89.786 5.289 L 90.806 5.24 C 90.715 5.325 90.329 5.484 89.966 5.623 C 90.087 6.126 89.856 7.505 89.804 7.599 L 90.242 8.157 C 90.151 8.126 89.914 7.999 89.658 7.856 C 89.57 8.36 87.549 12.081 87.513 12.053 C 87.513 12.053 87.882 10.056 87.28 9.45 C 85.923 8.085 83.434 9.654 81.509 9.64 C 79.878 9.629 77.76 9.64 76.62 9.41 C 76.49 9.38 77.147 10.712 77.68 11.118 C 78.733 11.92 80.388 11.507 81.49 12.24 C 82.166 12.69 82.655 13.966 83.424 14.418 L 84.678 13.364 C 84.754 13.591 84.728 14.684 84.717 15.033 C 85.089 15.178 85.957 15.519 86.061 15.574 L 87.717 14.422 Z M 79.74 6.211 C 79.08 5.901 78.984 5.839 78.74 6.071 C 78.58 6.223 78.685 6.543 78.8 6.731 C 78.917 6.923 79.422 7.199 79.791 7.24 C 80.253 7.291 81.16 6.891 81.16 6.891 C 81.18 6.821 80.58 6.611 79.74 6.211 Z" style="stroke-width: 1px;"/>
  <path d="M 69.587 4.906 H 71.84 L 71.84 4.906 V 11.809 L 71.84 11.809 H 69.587 L 69.587 11.809 V 4.906 L 69.587 4.906 Z" shape="rect 69.587 4.906 2.253 6.903 1 0 0 2@fc6c75eb"/>
  <path d="M 55.452 16.684 C 55.452 16.967 55.385 17.237 55.265 17.436 C 55.145 17.634 54.983 17.746 54.813 17.746 L 54.613 17.746 C 54.443 17.746 54.281 17.634 54.161 17.436 C 54.041 17.237 53.974 16.967 53.974 16.684 L 53.974 12.229 L 55.452 12.215 L 55.452 16.684 Z"/>
  <path d="M 59.743 16.659 C 59.743 16.942 59.676 17.212 59.556 17.411 C 59.436 17.609 59.274 17.721 59.104 17.721 L 58.904 17.721 C 58.734 17.721 58.572 17.609 58.452 17.411 C 58.332 17.212 58.265 16.942 58.265 16.659 L 58.265 12.204 L 59.743 12.19 L 59.743 16.659 Z"/>
  <path d="M 64.035 16.657 C 64.035 16.94 63.968 17.21 63.848 17.409 C 63.728 17.607 63.566 17.719 63.396 17.719 L 63.196 17.719 C 63.026 17.719 62.864 17.607 62.744 17.409 C 62.624 17.21 62.557 16.94 62.557 16.657 L 62.557 12.202 L 64.035 12.188 L 64.035 16.657 Z"/>
  <path d="M 68.396 16.655 C 68.396 16.938 68.329 17.208 68.209 17.407 C 68.089 17.605 67.927 17.717 67.757 17.717 L 67.557 17.717 C 67.387 17.717 67.225 17.605 67.105 17.407 C 66.985 17.208 66.918 16.938 66.918 16.655 L 66.918 12.2 L 68.396 12.186 L 68.396 16.655 Z"/>
  <ellipse cx="52.34" cy="7.58" rx="0.735" ry="0.735"/>
  <ellipse cx="56.47" cy="7.58" rx="0.735" ry="0.735"/>
  <ellipse cx="60.66" cy="7.58" rx="0.735" ry="0.735"/>
  <ellipse cx="64.845" cy="7.58" rx="0.735" ry="0.735"/>
</svg>