<?xml version="1.0" encoding="utf-8"?>
<svg id="Layer_1" data-name="Layer 1" class="color" xmlns="http://www.w3.org/2000/svg">
  <defs>
    <style>
      .cls-1 {
        fill: #DF7000;
      }
    </style>
  </defs>
  <g>
  <path d="M 0 0 C 0.99 0.66 1.98 1.32 3 2 C 5.909 2.277 26.85 2.041 30 2 C 30.33 3.65 30.66 5.3 31 7 C 33.52 7.197 36.041 7.383 38.563 7.563 C 39.619 7.647 39.619 7.647 40.697 7.732 C 45.301 8.051 78.261 8.131 79.299 8.129 C 81.89 8.101 81.89 8.101 83.891 7.493 C 87.076 6.748 113.017 7.187 113.731 7.201 C 117.403 7.22 118.853 7.098 122 5 C 129.313 4.404 136.807 4.442 143.875 6.563 C 146.149 7.108 146.149 7.108 149.125 6.973 C 153.855 7.006 169.831 9.504 170.677 9.637 C 180.278 11.137 187.559 11.955 196.738 8.363 C 199 8 199 8 201.293 9.23 C 203 11 203 11 203 14 C 207.634 15.545 212.161 15.484 217 15 C 221.754 12.623 223.576 8.525 225.887 3.926 C 227 2 227 2 229 1 C 230.375 0.917 244.9 0.981 247 1 C 244.246 31.617 244.452 30.481 244 38 C 240.915 37.553 223.054 34.238 221 33 C 220.67 32.34 220.34 31.68 220 31 C 214.187 29.371 208.023 28.498 202 29 C 200.515 29.99 200.386 30.934 199 31 C 194.862 30.899 191.984 29.508 188.438 27.563 C 182.488 24.453 176.612 23.707 170 23 C 168.6 22.834 168.6 22.834 167.172 22.664 C 165.117 22.425 163.059 22.209 161 22 C 161.389 22.608 161.779 23.217 162.18 23.844 C 165.017 28.289 177.75 51.051 179.969 53.27 C 182.387 53.452 226.044 54.843 235.694 48.743 C 239.849 43.601 241.379 41 244 41 C 244.33 40.34 244.725 43.883 242.25 47.063 C 241.74 47.734 241.229 48.406 240.703 49.098 C 233.928 56.665 180.827 57.566 176.961 54.918 C 176.314 53.955 162.999 33.047 158 27 C 155.336 26.84 126.249 26.098 122 26 C 121.865 31.685 132.355 31.813 133 32 C 134.717 38.24 135.217 44.311 135.25 50.75 C 135.259 51.471 135.268 52.191 135.277 52.933 C 135.253 57.329 135.117 61.11 133 65 C 130.379 66.369 128.074 67.358 125.313 68.313 C 118.867 70.79 114.999 73.138 111.262 79.18 C 110 81 110 81 107 82 C 104.437 82.142 43.424 83.037 41.649 83.088 C 27.695 83.47 27.695 83.47 23.426 79.768 C 21.556 77.048 21.556 77.048 20.199 74.326 C 18.53 71.089 16.257 70.411 13 69 C 10.801 66.316 9.005 63.508 7.125 60.594 C 3.782 56.513 0.407 55.188 -4.75 54.5 C -13.41 54.912 -20.104 60.348 -25.836 66.395 C -28.929 70.119 -42.016 87.129 -42.539 87.711 C -44.377 89.332 -46.042 89.9 -48.375 90.625 C -49.125 90.865 -49.875 91.105 -50.648 91.352 C -64.209 95.091 -80.424 94.01 -94.187 91.688 C -94.886 91.57 -95.584 91.452 -96.303 91.331 C -104.44 89.769 -112.266 86.396 -117.875 80.125 C -121.464 74.677 -120.957 68.212 -120 62 C -118.499 57.927 -116.499 54.536 -114 51 C -113.544 50.332 -113.087 49.665 -112.617 48.977 C -107.168 41.846 -98.969 38.308 -90.883 34.941 C -88.795 34.038 -88.795 34.038 -87 31.813 C -84.573 29.613 -83.629 29.774 -80.437 29.625 C -78.089 29.54 -78.089 29.54 -76 29 C -74.033 26.149 -74.033 26.149 -73 23 C -70 21 -70 21 -66.176 21.199 C -59.308 21.348 -53.415 18.43 -47.187 15.813 C -45.974 15.33 -44.76 14.847 -43.51 14.35 C -35.68 11.127 -35.68 11.127 -30 5 C -26.125 5.875 -26.125 5.875 -25 7 C -21.25 7.426 -19.568 7.426 -16.5 5.125 C -15.262 4.073 -15.262 4.073 -14 3 C -12.021 2.273 -10.02 1.602 -8 1 C -6.948 0.412 -6.948 0.412 -5.875 -0.187 C -3.463 -1.232 -2.421 -0.937 0 0 Z M -19 20 C -18.505 28.415 -18.505 28.415 -18 37 C -21.156 36.876 -21.156 36.876 -24.375 36.75 C -34.046 36.75 -40.899 40.069 -49 45 C -41.037 36.29 -33.746 34.105 -22 33 C -22 29.644 -22.291 28.953 -24.437 26.5 C -26.322 24.748 -26.322 24.748 -29 24 C -34.213 24.838 -51.208 30.301 -54.898 31.129 C -57.6 32.249 -58.541 33.491 -60 36 C -60.989 43.173 -58.533 47.842 -55 54 C -51.352 54 -34.709 47.438 -32.576 46.617 C -19.16 42.42 -9.344 38.906 -10 33 C -10.928 31.732 -10.928 31.732 -11.875 30.438 C -14.13 27.086 -15.061 23.911 -16 20 C -16.99 20 -17.98 20 -19 20 Z M 10 25 C 9.67 26.32 9.34 27.64 9 29 C 8.408 29.061 -2.525 30.505 -5 31 C -5.66 34.3 -6.32 37.6 -7 41 C -7.876 41.283 -47.111 56.763 -48.123 57.161 C -52.413 58.412 -55.769 58.41 -60 57 C -60.115 56.281 -60.229 55.561 -60.348 54.82 C -61.03 51.87 -64.301 45.179 -64.746 44.305 C -66.045 41.836 -70 37.68 -70 37 C -74.455 37.495 -74.455 37.495 -79 38 C -79 38.66 -82.361 41.35 -83.75 40.688 C -89.642 39.014 -94.922 42.198 -100 45 C -106.689 49.654 -112.309 55.479 -114.375 63.5 C -115.303 68.744 -115.168 72.99 -112.437 77.688 C -101.319 88.236 -83.615 89.076 -69.375 89.188 C -67.926 89.207 -55.641 89.283 -45.266 83.937 C -44.636 83.347 -38.696 75.604 -37.125 73.313 C -27.167 58.967 -18.464 51.299 -1.27 47.223 C 2.534 45.8 4.347 44.032 7 41 C 8.083 39.763 8.083 39.763 9.188 38.5 C 11.712 35.018 13 32.319 13 28 C 13.66 28 14.32 28 15 28 C 16.194 27.882 15.891 27.02 16 25 C 14.02 25 12.04 25 10 25 Z M 108 72 C 100.497 71.977 27.687 73.012 27 73 C 27 73.99 27 74.98 27 76 C 29.343 77.171 30.701 77.12 33.31 77.111 C 34.207 77.11 93.266 76.391 94.287 76.379 C 99.238 76.273 103.359 76.94 108 75 C 108 74.34 108 72.68 108 72 Z" transform="translate(124,33)"/>
</g>
  <path class="cls-1" d="M 0 0 C 15.902 0.258 22.128 10.229 23.268 21.439 C 24.575 34.303 19.185 48.799 14.031 52.125 C 9.621 55.159 5.38 57.575 6.031 68.125 C 6.626 68.149 25.59 66.089 16.031 89.125 C 11.28 102.49 -7.289 111.125 -7.969 111.125 C 2.893 88.365 -2.597 72.027 -2.969 71.25 C -5.17 66.605 -5.239 56.003 -5.348 55.276 C -6.396 48.297 1.359 34.728 4.535 32.66 C 13.035 23.177 2.706 -0.002 -2.969 1.125 C -1.969 0.125 -1.969 0.125 0 0 Z" transform="translate(468.96875,0.875)"/>
  <path class="cls-1" d="M -1.535 3.066 C -1 1 3.254 14.581 0.445 21.121 C -2.632 28.285 -0.333 38.915 0 41.248 C -2.472 43.809 -15.769 31.656 -15.312 25.688 C -14.813 19.795 -12.781 16.488 -8.437 12.625 C -5.308 10 -1.714 3.915 -1.535 3.066 Z" transform="translate(457,30)"/>
  <path class="cls-1" d="M -8 19 C -5.8 7.963 1.98 0 3 0 C 4.804 3.833 5.441 6.768 5 11 C 1.342 19.473 -5.812 19.188 -8 19 Z" transform="translate(503,70)"/>
  <ellipse class="cls-1" cx="420.023" cy="88.407" rx="26.248" ry="26.248"/>
</svg>