<?xml version="1.0" encoding="utf-8"?>
<svg id="Layer_1" class="color" xmlns="http://www.w3.org/2000/svg" viewBox="2.524 31.71 213.236 69.808">
  <defs>
    <style>
      .cls-1 {
        opacity: .5;
      }
    </style>
  </defs>
  <g>
    <path d="M 64.994 85.848 C 63.736 86.933 61.706 86.75 60.065 86.578 C 58.33 86.396 56.392 85.746 55.066 84.753 C 53.752 83.769 53.009 82.437 52.996 81.046 C 52.562 81.18 42.7 84.65 39 92.55 L 32.7 93.3 L 33.115 73.05 L 39.921 74.054 C 39.921 74.054 50.798 74.064 54.861 68.603 L 54.9 61.099 L 131.817 61.274 L 131.836 62.851 L 135.9 64.55 C 136.184 64.55 136.268 64.835 136.258 66.48 L 182.93 66.48 C 184.143 66.567 183.95 70.763 182.93 70.579 L 136.11 70.579 C 136.018 72.195 135.914 72.45 135.9 72.45 L 131.72 73.599 L 131.72 77.399 C 131.72 77.399 112.685 77.666 104.792 78.172 C 100.913 78.421 98.142 80.897 97.564 81.099 C 90.936 83.42 90.712 79.588 87.197 79.514 C 85.515 79.479 83.549 79.464 81.449 79.464 L 81.449 81.686 L 81.44 81.686 L 81.44 85.132 L 77.69 84.982 L 77.69 81.701 L 66.738 81.743 C 66.486 83.21 65.948 85.025 64.994 85.848 Z M 55.147 80.485 C 55.124 80.636 55.659 82.971 56.588 83.678 C 58.481 85.118 61.661 86.093 63.64 84.773 C 65.102 83.798 65.085 80.063 64.896 79.652 C 63.544 79.678 61.417 79.597 60.084 79.832 C 59.121 80.002 61.107 84.15 61.252 84.102 C 61.07 85.381 57.384 81.587 57.566 80.113 C 56.563 80.227 55.721 80.353 55.147 80.485 Z M 125.486 64.061 L 119.327 64.061 L 121.843 72.9 L 125.724 72.9 L 125.486 64.061 Z M 87.857 64.061 L 87.949 72.9 L 93.657 72.9 L 90.95 64.061 L 87.857 64.061 Z M 102.312 72.9 L 99.605 64.061 L 93.243 64.061 L 95.759 72.9 L 102.312 72.9 Z M 111.018 72.9 L 108.311 64.061 L 101.896 64.061 L 104.412 72.9 L 111.018 72.9 Z M 119.736 72.9 L 117.029 64.061 L 110.607 64.061 L 113.123 72.9 L 119.736 72.9 Z M 77.609 67.346 L 81.914 67.346 C 81.914 67.346 81.97 66.165 81.54 66.093 C 81.044 66.011 78.436 66.01 77.982 66.093 C 77.554 66.173 77.609 67.346 77.609 67.346 Z M 77.631 69.089 L 81.936 69.089 C 81.936 69.089 81.992 67.908 81.562 67.836 C 81.066 67.754 78.458 67.753 78.004 67.836 C 77.576 67.916 77.631 69.089 77.631 69.089 Z M 77.636 70.836 L 81.941 70.836 C 81.941 70.836 81.997 69.655 81.567 69.583 C 81.071 69.501 78.463 69.5 78.009 69.583 C 77.581 69.663 77.636 70.836 77.636 70.836 Z M 62.535 73.302 L 73.534 73.302 L 73.534 72.407 L 62.535 72.407 L 62.535 73.302 Z"/>
    <path d="M 78.288 86.445 C 67.231 102.148 52.223 98.801 34.217 96.775 L 33.355 98.725 C 57.737 103.037 71.495 101.806 80.538 86.595"/>
    <path d="M 31.276 72.983 L 31.063 93.229 L 33.613 95.179 L 31.813 99.348 L 29.563 99.198 L 3.93 100.06 C 2.787 99.917 2.718 73.694 3.861 73.837 L 31.276 72.983 Z M 9.677 80.357 L 8.58 83.652 L 12.599 78.868 L 10.172 79.09 L 11.577 75.672 L 7.256 80.443 L 9.677 80.357 Z"/>
    <path d="M 50.7 52.4 C 48 52.2 47 49.7 47.7 44.9 L 81.239 44.769 L 78.798 36.265 L 78.4 35.92 L 78.183 33.452 C 78.649 32.492 79.194 32.359 79.818 33.052 L 80.282 35.688 L 79.895 36.137 L 82.809 44.776 L 85.567 37.896 L 85.335 37.089 L 86.132 34.605 C 86.794 33.767 87.355 33.754 87.815 34.567 L 87.444 37.494 L 86.822 38.025 L 84.38 44.75 L 85.95 44.75 L 85.65 59.9 L 50.7 59.9 L 50.7 52.4 Z M 87.816 34.567 C 87.816 34.567 87.816 34.567 87.816 34.567 L 87.816 34.566 L 87.816 34.567 Z"/>
    <path d="M 87.029 47.259 L 86.926 57.218 L 89.176 57.263 L 89.776 56.259 L 95.026 57.309 C 96.726 54.209 96.826 50.959 95.326 47.559 L 89.926 48.159 L 89.476 47.259 L 87.029 47.259 Z"/>
    <rect class="cls-1" x="87.795" y="66.502" width="38.093" height="4.099"/>
    <path class="cls-1" d="M 185.992 64.381 L 205.563 52.426 L 198.833 62.938 L 215.718 66.813 L 196.915 71.123 L 205.075 77.536 L 187.684 73.807 L 191.176 70.621 L 187.5 69.008 L 189.298 66.297 L 185.992 64.381 Z"/>
  </g>
</svg>