<?xml version="1.0" encoding="utf-8"?>
<svg id="Layer_1" class="color" xmlns="http://www.w3.org/2000/svg" viewBox="18.821 1.982 39.266 28.212">
  <defs>
    <style>
      .st0 {
        fill: #00e1ff;
      }
    </style>
  </defs>
  <path d="M 23.13 3.97 L 23.13 9.91 C 23.13 9.91 21.918 10.081 21.473 9.674 C 20.75 9.012 20.747 4.823 21.473 4.163 C 21.917 3.759 23.12 3.97 23.12 3.97 L 23.13 3.97 Z"/>
  <rect x="38.14" y="6.75" width="1.53" height="1.31"/>
  <path d="M 22.1 11.5 C 21.73 13.49 20.49 12.67 19.2 17.73 C 19.44 17.88 23.24 19.35 23.35 19.37 C 23.86 18.15 24.45 16.86 25.14 15.52 C 25.9 14.05 26.69 12.71 27.46 11.49 L 22.09 11.49 L 22.1 11.5 Z"/>
  <path d="M 23.144 19.694 C 23.064 19.674 19.124 18.124 19.104 18.104 C 19.114 18.534 19.304 19.134 19.564 19.234 C 20.524 19.744 22.324 20.824 23.144 19.694 Z"/>
  <path class="st0" d="M 50.377 5.744 C 52.192 6.474 57.851 4.804 57.835 4.741 C 57.834 4.756 52.192 3.404 50.4 3.984 C 49.842 4.165 49.833 5.525 50.377 5.744 Z"/>
  <rect x="30.43" y="28.3" width="12.87" height="1.51" rx=".41" ry=".41"/>
  <rect x="31.25" y="11.13" width="11.19" height="1.3" rx=".34" ry=".34"/>
  <path d="M 43.26 4.092 C 43.273 4.091 46.63 3.92 46.63 3.92 L 46.63 5.85 C 46.63 5.85 43.273 5.678 43.26 5.676 L 43.26 6.29 L 46.63 6.29 L 46.63 6.73 L 43.169 6.73 C 42.955 7.07 42.385 7.31 41.71 7.31 L 40.6 7.31 C 40.6 7.313 40.6 7.317 40.6 7.32 C 40.6 7.32 40.663 8.286 40.474 8.565 C 40.055 9.183 38.52 9.16 38.52 9.16 L 38.52 10.69 C 38.52 10.717 38.509 10.742 38.491 10.761 C 38.472 10.779 38.447 10.79 38.42 10.79 L 35.31 10.79 C 35.283 10.79 35.258 10.779 35.239 10.761 C 35.221 10.742 35.21 10.717 35.21 10.69 L 35.21 9.214 C 34.874 9.231 31.662 9.263 30.1 9.99 C 29.573 10.235 28.88 10.53 28.79 11.14 C 28.71 11.75 29.069 12.426 29.569 12.586 C 29.679 12.626 28.71 12.68 28.33 12.1 C 27.96 11.55 27.85 10.93 27.8 11.01 C 27.77 11.01 22.18 11.01 22.18 11.01 C 22.19 10.84 22.21 10.66 22.21 10.47 L 23.42 10.47 C 23.55 10.47 23.67 10.36 23.67 10.22 C 23.67 10.19 23.67 4.1 23.67 4.1 C 23.67 3.77 23.94 3.5 24.27 3.5 L 28.23 3.5 C 28.85 3.5 29.39 3.15 29.67 2.64 C 29.77 2.46 29.97 2.37 30.17 2.37 L 41.71 2.37 L 41.71 2.36 C 42.57 2.36 43.26 2.76 43.26 3.24 L 43.26 4.092 Z M 31.93 3.71 C 31.93 3.29 31.59 2.95 31.17 2.95 C 30.75 2.95 30.41 3.29 30.41 3.71 C 30.41 4.13 30.75 4.47 31.17 4.47 C 31.59 4.47 31.93 4.13 31.93 3.71 Z M 35.55 3.69 C 35.55 3.27 35.21 2.93 34.79 2.93 C 34.37 2.93 34.03 3.27 34.03 3.69 C 34.03 4.11 34.37 4.45 34.79 4.45 C 35.21 4.45 35.55 4.11 35.55 3.69 Z M 39.16 3.69 C 39.16 3.27 38.82 2.93 38.4 2.93 C 37.98 2.93 37.64 3.27 37.64 3.69 C 37.64 4.11 37.98 4.45 38.4 4.45 C 38.82 4.45 39.16 4.11 39.16 3.69 Z"/>
  <path d="M 49.21 3.94 L 47.63 3.85 L 47.63 5.89 L 49.21 5.81 C 49.37 5.79 49.51 5.73 49.55 5.66 C 49.32 5.07 49.3 4.55 49.55 4.08 C 49.51 4.01 49.38 3.95 49.21 3.94 Z"/>
  <polygon points="49.55 4.08 49.55 4.08 49.55 4.09 49.55 4.08"/>
  <path d="M48.86,6.29h-1.23v.44h1.23c.08,0,.14-.06.14-.14v-.16c0-.08-.06-.14-.14-.14Z"/>
  <rect x="46.78" y="3.69" width=".7" height="3.25" rx=".29" ry=".29"/>
  <path d="M47.02,5.26"/>
  <path d="M22.56,2.19"/>
  <path d="M36.14,26.19v-11.8h6.79v-.74c0-.48-.39-.86-.86-.86h-10.45c-.48,0-.86.39-.86.86v13.45c0,.48.39.86.86.86h10.45c.48,0,.86-.39.86-.86v-.91h-6.79Z"/>
  <rect x="36.85" y="15.3" width="6.09" height="10.15"/>
</svg>